<svg width="40" height="40" viewBox="0 0 40 40" fill="none" xmlns="http://www.w3.org/2000/svg">
<path d="M20 37.9167C10.1167 37.9167 2.08337 29.8833 2.08337 20C2.08337 10.1167 10.1167 2.08333 20 2.08333C29.8834 2.08333 37.9167 10.1167 37.9167 20C37.9167 29.8833 29.8834 37.9167 20 37.9167ZM20 4.58333C11.5 4.58333 4.58337 11.5 4.58337 20C4.58337 28.5 11.5 35.4167 20 35.4167C28.5 35.4167 35.4167 28.5 35.4167 20C35.4167 11.5 28.5 4.58333 20 4.58333Z" fill="#FFC091"/>
<path d="M26.6667 21.25H13.3334C12.65 21.25 12.0834 20.6833 12.0834 20C12.0834 19.3167 12.65 18.75 13.3334 18.75H26.6667C27.35 18.75 27.9167 19.3167 27.9167 20C27.9167 20.6833 27.35 21.25 26.6667 21.25Z" fill="#FFC091"/>
<path d="M20 27.9167C19.3167 27.9167 18.75 27.35 18.75 26.6667V13.3333C18.75 12.65 19.3167 12.0833 20 12.0833C20.6833 12.0833 21.25 12.65 21.25 13.3333V26.6667C21.25 27.35 20.6833 27.9167 20 27.9167Z" fill="#FFC091"/>
</svg>
