<svg width="32" height="32" viewBox="0 0 32 32" fill="none" xmlns="http://www.w3.org/2000/svg">
<path d="M16 30.3333C8.09329 30.3333 1.66663 23.9067 1.66663 16C1.66663 8.09332 8.09329 1.66666 16 1.66666C23.9066 1.66666 30.3333 8.09332 30.3333 16C30.3333 23.9067 23.9066 30.3333 16 30.3333ZM16 3.66666C9.19996 3.66666 3.66663 9.19999 3.66663 16C3.66663 22.8 9.19996 28.3333 16 28.3333C22.8 28.3333 28.3333 22.8 28.3333 16C28.3333 9.19999 22.8 3.66666 16 3.66666Z" fill="#FFC091"/>
<path d="M20.6666 17H12.6666C12.12 17 11.6666 16.5467 11.6666 16C11.6666 15.4533 12.12 15 12.6666 15H20.6666C21.2133 15 21.6666 15.4533 21.6666 16C21.6666 16.5467 21.2133 17 20.6666 17Z" fill="#FFC091"/>
<path d="M15.3333 21C15.08 21 14.8267 20.9067 14.6267 20.7067L10.6267 16.7067C10.24 16.32 10.24 15.68 10.6267 15.2933L14.6267 11.2933C15.0133 10.9067 15.6533 10.9067 16.04 11.2933C16.4267 11.68 16.4267 12.32 16.04 12.7067L12.7467 16L16.04 19.2933C16.4267 19.68 16.4267 20.32 16.04 20.7067C15.84 20.9067 15.5867 21 15.3333 21Z" fill="#FFC091"/>
</svg>
