<svg width="40" height="40" viewBox="0 0 40 40" fill="none" xmlns="http://www.w3.org/2000/svg">
<circle cx="20" cy="20" r="20" fill="#FFC091"/>
<path d="M25.2401 30.75H14.7601C11.9601 30.75 10.1801 29.08 10.0201 26.29L9.50005 18.04C9.42005 16.79 9.85005 15.59 10.7101 14.68C11.5601 13.77 12.7601 13.25 14.0001 13.25C14.3201 13.25 14.6301 13.06 14.7801 12.76L15.5001 11.33C16.0901 10.16 17.5701 9.25 18.8601 9.25H21.1501C22.4401 9.25 23.9101 10.16 24.5001 11.32L25.2201 12.78C25.3701 13.06 25.6701 13.25 26.0001 13.25C27.2401 13.25 28.4401 13.77 29.2901 14.68C30.1501 15.6 30.5801 16.79 30.5001 18.04L29.9801 26.3C29.8001 29.13 28.0701 30.75 25.2401 30.75ZM18.8601 10.75C18.1201 10.75 17.1801 11.33 16.8401 12L16.1201 13.44C15.7001 14.25 14.8901 14.75 14.0001 14.75C13.1601 14.75 12.3801 15.09 11.8001 15.7C11.2301 16.31 10.9401 17.11 11.0001 17.94L11.5201 26.2C11.6401 28.22 12.7301 29.25 14.7601 29.25H25.2401C27.2601 29.25 28.3501 28.22 28.4801 26.2L29.0001 17.94C29.0501 17.11 28.7701 16.31 28.2001 15.7C27.6201 15.09 26.8401 14.75 26.0001 14.75C25.1101 14.75 24.3001 14.25 23.8801 13.46L23.1501 12C22.8201 11.34 21.8801 10.76 21.1401 10.76H18.8601V10.75Z" fill="#260A2F"/>
<path d="M21.5 16.75H18.5C18.09 16.75 17.75 16.41 17.75 16C17.75 15.59 18.09 15.25 18.5 15.25H21.5C21.91 15.25 22.25 15.59 22.25 16C22.25 16.41 21.91 16.75 21.5 16.75Z" fill="#260A2F"/>
<path d="M20 26.75C17.79 26.75 16 24.96 16 22.75C16 20.54 17.79 18.75 20 18.75C22.21 18.75 24 20.54 24 22.75C24 24.96 22.21 26.75 20 26.75ZM20 20.25C18.62 20.25 17.5 21.37 17.5 22.75C17.5 24.13 18.62 25.25 20 25.25C21.38 25.25 22.5 24.13 22.5 22.75C22.5 21.37 21.38 20.25 20 20.25Z" fill="#260A2F"/>
</svg>
