<svg width="12" height="4" viewBox="0 0 12 4" fill="none" xmlns="http://www.w3.org/2000/svg">
<path d="M1.99996 0.666672C1.26663 0.666672 0.666626 1.26667 0.666626 2.00001C0.666626 2.73334 1.26663 3.33334 1.99996 3.33334C2.73329 3.33334 3.33329 2.73334 3.33329 2.00001C3.33329 1.26667 2.73329 0.666672 1.99996 0.666672ZM9.99996 0.666672C9.26663 0.666672 8.66663 1.26667 8.66663 2.00001C8.66663 2.73334 9.26663 3.33334 9.99996 3.33334C10.7333 3.33334 11.3333 2.73334 11.3333 2.00001C11.3333 1.26667 10.7333 0.666672 9.99996 0.666672ZM5.99996 0.666672C5.26663 0.666672 4.66663 1.26667 4.66663 2.00001C4.66663 2.73334 5.26663 3.33334 5.99996 3.33334C6.73329 3.33334 7.33329 2.73334 7.33329 2.00001C7.33329 1.26667 6.73329 0.666672 5.99996 0.666672Z" fill="#FFC091"/>
</svg>
